<svg width="40" height="40" viewBox="0 0 40 40" fill="none" xmlns="http://www.w3.org/2000/svg">
    <rect width="40" height="40" fill="url(#paint0_linear_1125_24)"/>
    <g filter="url(#filter0_d_1125_24)">
        <path fill-rule="evenodd" clip-rule="evenodd" d="M12.1257 14.0259C12.1257 12.0476 12.1257 16.0043 12.1257 16.0043V19.9609V23.9176C12.1257 23.9176 12.1257 23.9176 12.1257 25.8959C12.1257 27.8743 14.2603 27.8743 14.2603 27.8743C12.1257 27.8743 16.3948 27.8743 16.3948 27.8743H20.6638L19.4615 30.2344H11.7092C10.6358 30.2344 9.76562 29.3642 9.76562 28.2908V11.6311C9.76562 10.5577 10.6358 9.6875 11.7092 9.6875H28.3689C29.4423 9.6875 30.3125 10.5577 30.3125 11.6311V18.828L27.9524 20.0304V15.9002V12.0476V13.9739C27.9524 13.9739 27.9524 12.0476 25.9741 12.0476C23.9957 12.0476 23.9957 12.0476 23.9957 12.0476H20.0391H16.0824C16.0824 12.0476 16.0824 12.0476 14.1041 12.0476C12.1257 12.0476 12.1257 14.0259 12.1257 14.0259ZM21.8661 30.2344L20.6638 27.8743C20.6638 27.8743 24.0279 26.8266 25.5576 25.2018C27.1159 23.5466 27.9524 20.0304 27.9524 20.0304L30.3125 21.2327V28.2908C30.3125 29.3642 29.4423 30.2344 28.3689 30.2344H21.8661Z" fill="#D4EAFA"/>
    </g>
    <defs>
        <filter id="filter0_d_1125_24" x="8.90625" y="8.82812" width="22.8906" height="22.8906" filterUnits="userSpaceOnUse" color-interpolation-filters="sRGB">
            <feFlood flood-opacity="0" result="BackgroundImageFix"/>
            <feColorMatrix in="SourceAlpha" type="matrix" values="0 0 0 0 0 0 0 0 0 0 0 0 0 0 0 0 0 0 127 0" result="hardAlpha"/>
            <feOffset dx="0.3125" dy="0.3125"/>
            <feGaussianBlur stdDeviation="0.585938"/>
            <feComposite in2="hardAlpha" operator="out"/>
            <feColorMatrix type="matrix" values="0 0 0 0 0.264876 0 0 0 0 0.558926 0 0 0 0 1 0 0 0 1 0"/>
            <feBlend mode="normal" in2="BackgroundImageFix" result="effect1_dropShadow_1125_24"/>
            <feBlend mode="normal" in="SourceGraphic" in2="effect1_dropShadow_1125_24" result="shape"/>
        </filter>
        <linearGradient id="paint0_linear_1125_24" x1="20" y1="0" x2="20" y2="40" gradientUnits="userSpaceOnUse">
            <stop/>
            <stop offset="1" stop-color="#141313"/>
        </linearGradient>
    </defs>
</svg>
